<svg width="307" height="119" viewBox="0 0 307 119" fill="none" xmlns="http://www.w3.org/2000/svg">
<g filter="url(#filter0_i_1_2)">
<path d="M54.3889 48L61.8184 1.01H80.5509C82.8792 1.01 84.9536 1.391 86.7739 2.153C88.6366 2.87266 90.1182 4.14266 91.2189 5.963C92.3196 7.78333 92.8699 10.3233 92.8699 13.583C92.8699 14.218 92.8064 15.0223 92.6794 15.996C92.5524 16.9273 92.4254 17.774 92.2984 18.536C91.8751 21.3723 91.1554 23.743 90.1394 25.648C89.1657 27.553 87.9804 29.077 86.5834 30.22C85.2287 31.3207 83.7471 32.125 82.1384 32.633C80.5721 33.0987 79.0057 33.3315 77.4394 33.3315C75.4074 33.3315 73.3542 33.2257 71.2799 33.014C69.2479 32.76 67.5969 32.506 66.3269 32.252L63.7869 48H54.3889ZM67.4699 24.886H76.1694C77.3547 24.886 78.4131 24.6108 79.3444 24.0605C80.2757 23.5102 81.0377 22.6847 81.6304 21.584C82.2654 20.4833 82.7099 19.1287 82.9639 17.52C83.0486 16.9273 83.1121 16.3558 83.1544 15.8055C83.2391 15.2128 83.2814 14.7895 83.2814 14.5355C83.2814 12.6728 82.8792 11.3605 82.0749 10.5985C81.3129 9.8365 80.2122 9.4555 78.7729 9.4555H69.8829L67.4699 24.886ZM111.18 48.381C108.767 48.381 106.566 48.1905 104.576 47.8095C102.587 47.3862 100.872 46.6453 99.4327 45.587C97.9934 44.4863 96.8927 42.9835 96.1307 41.0785C95.3687 39.1312 94.9877 36.6123 94.9877 33.522C94.9877 32.0403 95.0724 30.4105 95.2417 28.6325C95.4111 26.8545 95.6439 25.0553 95.9402 23.235C96.6599 18.8323 97.6124 15.1705 98.7977 12.2495C99.9831 9.3285 101.486 7.02133 103.306 5.328C105.127 3.63467 107.307 2.42817 109.847 1.7085C112.429 0.98883 115.435 0.628997 118.864 0.628997C121.192 0.628997 123.33 0.840663 125.277 1.264C127.267 1.68733 128.981 2.4705 130.421 3.6135C131.902 4.71416 133.045 6.2805 133.85 8.3125C134.654 10.3445 135.056 12.9692 135.056 16.1865C135.056 17.5412 134.972 19.1075 134.802 20.8855C134.633 22.6635 134.379 24.4838 134.04 26.3465C133.363 30.9185 132.41 34.6438 131.183 37.5225C129.997 40.4012 128.495 42.6237 126.674 44.19C124.854 45.7563 122.674 46.857 120.134 47.492C117.594 48.0847 114.609 48.381 111.18 48.381ZM112.704 39.872C114.567 39.872 116.154 39.618 117.467 39.11C118.821 38.602 119.943 37.7765 120.832 36.6335C121.764 35.4482 122.526 33.9242 123.118 32.0615C123.753 30.1565 124.282 27.8282 124.706 25.0765C124.96 23.3408 125.171 21.711 125.341 20.187C125.51 18.6207 125.595 17.3295 125.595 16.3135C125.595 14.2815 125.298 12.7575 124.706 11.7415C124.113 10.7255 123.224 10.027 122.039 9.646C120.853 9.265 119.329 9.0745 117.467 9.0745C115.689 9.0745 114.122 9.30733 112.768 9.773C111.455 10.2387 110.334 11.043 109.402 12.186C108.471 13.2867 107.667 14.8318 106.989 16.8215C106.354 18.8112 105.804 21.3723 105.338 24.505C105.042 26.1983 104.809 27.807 104.64 29.331C104.47 30.8127 104.386 32.0403 104.386 33.014C104.386 34.8343 104.661 36.2525 105.211 37.2685C105.804 38.2422 106.714 38.9195 107.942 39.3005C109.169 39.6815 110.757 39.872 112.704 39.872ZM152.917 48.381C150.673 48.381 148.577 48.2963 146.63 48.127C144.725 48 142.989 47.8307 141.423 47.619C139.899 47.365 138.566 47.111 137.423 46.857L138.566 39.4275C140.471 39.5545 142.693 39.6815 145.233 39.8085C147.773 39.8932 150.271 39.9355 152.726 39.9355C154.504 39.9355 155.986 39.8085 157.171 39.5545C158.399 39.3005 159.33 38.8348 159.965 38.1575C160.6 37.4802 161.023 36.5277 161.235 35.3L161.489 33.649C161.531 33.395 161.553 33.1833 161.553 33.014C161.595 32.8023 161.616 32.5907 161.616 32.379C161.616 31.1937 161.193 30.347 160.346 29.839C159.499 29.331 158.145 29.077 156.282 29.077H152.536C148.937 29.077 146.164 28.188 144.217 26.41C142.27 24.5897 141.296 22.1767 141.296 19.171C141.296 18.3243 141.36 17.4353 141.487 16.504L142.122 12.694C142.587 9.68833 143.54 7.2965 144.979 5.5185C146.461 3.7405 148.366 2.49166 150.694 1.772C153.065 1.01 155.795 0.628997 158.886 0.628997C159.902 0.628997 161.002 0.671331 162.188 0.755999C163.373 0.798332 164.579 0.882999 165.807 1.01C167.077 1.137 168.326 1.30633 169.554 1.518C170.824 1.72966 172.051 1.9625 173.237 2.2165L172.03 9.646C170.591 9.519 169.003 9.43433 167.268 9.392C165.532 9.30733 163.817 9.24383 162.124 9.2015C160.473 9.15916 159.013 9.138 157.743 9.138C156.473 9.138 155.351 9.265 154.377 9.519C153.446 9.773 152.684 10.2387 152.091 10.916C151.498 11.5933 151.096 12.5458 150.885 13.7735L150.631 15.4245C150.588 15.6785 150.546 15.9325 150.504 16.1865C150.504 16.3982 150.504 16.6098 150.504 16.8215C150.504 18.0068 150.842 18.8747 151.52 19.425C152.239 19.933 153.319 20.187 154.758 20.187H158.759C162.738 20.187 165.722 21.0972 167.712 22.9175C169.744 24.7378 170.76 27.1297 170.76 30.093C170.76 30.855 170.697 31.7017 170.57 32.633L169.935 37.0145C169.511 39.6392 168.665 41.7982 167.395 43.4915C166.125 45.1425 164.304 46.3702 161.934 47.1745C159.605 47.9788 156.6 48.381 152.917 48.381ZM184.174 48L190.27 9.4555H177.443L178.776 1.01H213.955L212.622 9.4555H199.731L193.635 48H184.174ZM230.243 48.381C227.83 48.381 225.628 48.1905 223.639 47.8095C221.649 47.3862 219.935 46.6453 218.495 45.587C217.056 44.4863 215.955 42.9835 215.193 41.0785C214.431 39.1312 214.05 36.6123 214.05 33.522C214.05 32.0403 214.135 30.4105 214.304 28.6325C214.474 26.8545 214.706 25.0553 215.003 23.235C215.722 18.8323 216.675 15.1705 217.86 12.2495C219.046 9.3285 220.548 7.02133 222.369 5.328C224.189 3.63467 226.369 2.42817 228.909 1.7085C231.492 0.98883 234.497 0.628997 237.926 0.628997C240.255 0.628997 242.392 0.840663 244.34 1.264C246.329 1.68733 248.044 2.4705 249.483 3.6135C250.965 4.71416 252.108 6.2805 252.912 8.3125C253.717 10.3445 254.119 12.9692 254.119 16.1865C254.119 17.5412 254.034 19.1075 253.865 20.8855C253.695 22.6635 253.441 24.4838 253.103 26.3465C252.425 30.9185 251.473 34.6438 250.245 37.5225C249.06 40.4012 247.557 42.6237 245.737 44.19C243.916 45.7563 241.736 46.857 239.196 47.492C236.656 48.0847 233.672 48.381 230.243 48.381ZM231.767 39.872C233.629 39.872 235.217 39.618 236.529 39.11C237.884 38.602 239.006 37.7765 239.895 36.6335C240.826 35.4482 241.588 33.9242 242.181 32.0615C242.816 30.1565 243.345 27.8282 243.768 25.0765C244.022 23.3408 244.234 21.711 244.403 20.187C244.573 18.6207 244.657 17.3295 244.657 16.3135C244.657 14.2815 244.361 12.7575 243.768 11.7415C243.176 10.7255 242.287 10.027 241.101 9.646C239.916 9.265 238.392 9.0745 236.529 9.0745C234.751 9.0745 233.185 9.30733 231.83 9.773C230.518 10.2387 229.396 11.043 228.465 12.186C227.533 13.2867 226.729 14.8318 226.052 16.8215C225.417 18.8112 224.866 21.3723 224.401 24.505C224.104 26.1983 223.872 27.807 223.702 29.331C223.533 30.8127 223.448 32.0403 223.448 33.014C223.448 34.8343 223.723 36.2525 224.274 37.2685C224.866 38.2422 225.777 38.9195 227.004 39.3005C228.232 39.6815 229.819 39.872 231.767 39.872ZM13.17 118.381C8.72496 118.381 5.57113 117.196 3.70846 114.825C1.88813 112.412 0.977963 108.665 0.977963 103.585C0.977963 101.765 1.0838 99.9237 1.29546 98.061C1.50713 96.1983 1.76113 94.3568 2.05746 92.5365C2.8618 87.7105 4.11063 83.6677 5.80396 80.408C7.4973 77.1483 9.7198 74.693 12.4715 73.042C15.2655 71.391 18.631 70.5655 22.568 70.5655C26.4626 70.5655 29.6376 70.7983 32.093 71.264C34.5483 71.6873 36.7496 72.1953 38.697 72.788L37.554 80.0905C36.157 79.8365 34.3155 79.6037 32.0295 79.392C29.7435 79.138 26.9495 79.011 23.6475 79.011C20.9381 79.011 18.7791 79.5402 17.1705 80.5985C15.5618 81.6145 14.3341 83.2655 13.4875 85.5515C12.6408 87.8375 11.9 90.8643 11.265 94.632C10.757 98.061 10.503 100.791 10.503 102.823C10.503 105.067 10.9686 106.782 11.9 107.967C12.8313 109.11 14.3553 109.681 16.472 109.681C17.2763 109.681 18.123 109.639 19.012 109.554C19.9433 109.47 20.8535 109.364 21.7425 109.237C22.6738 109.068 23.4993 108.919 24.219 108.792C24.9386 108.623 25.5313 108.475 25.997 108.348L27.4575 99.1405H19.012L20.2185 91.711C21.3191 91.584 22.7585 91.457 24.5365 91.33C26.3568 91.203 28.4523 91.1395 30.823 91.1395C31.5003 91.1395 32.2835 91.1607 33.1725 91.203C34.0615 91.203 34.9081 91.2242 35.7125 91.2665C36.5591 91.2665 37.2365 91.2665 37.7445 91.2665L33.5535 118H26.4415L25.6795 114.825C25.0868 115.164 24.2825 115.545 23.2665 115.968C22.2505 116.391 21.1498 116.793 19.9645 117.174C18.7791 117.513 17.5938 117.788 16.4085 118C15.2231 118.254 14.1436 118.381 13.17 118.381ZM38.4559 118L60.8079 71.01H72.6189L79.8579 118H70.0789L68.7454 108.157H52.6799L48.1079 118H38.4559ZM56.2359 99.712H67.7929L65.3799 79.138L56.2359 99.712ZM85.2102 118L92.5762 71.01H110.801C113.933 71.01 116.368 71.4333 118.103 72.28C119.881 73.0843 121.109 74.2062 121.786 75.6455C122.506 77.0848 122.866 78.757 122.866 80.662C122.866 81.2123 122.845 81.7627 122.802 82.313C122.76 82.821 122.696 83.3713 122.612 83.964C122.273 86.3347 121.342 88.3878 119.818 90.1235C118.294 91.8592 116.346 93.0022 113.976 93.5525C115.373 93.8912 116.579 94.4415 117.595 95.2035C118.654 95.9655 119.458 96.9815 120.008 98.2515C120.601 99.4792 120.897 101.024 120.897 102.887C120.897 103.31 120.876 103.818 120.834 104.411C120.791 105.004 120.686 105.808 120.516 106.824C119.797 110.846 118.019 113.724 115.182 115.46C112.388 117.153 108.536 118 103.625 118H85.2102ZM95.9417 109.554H104.832C106.356 109.554 107.583 109.343 108.515 108.919C109.488 108.496 110.229 107.861 110.737 107.014C111.288 106.125 111.669 105.025 111.88 103.712C111.965 103.374 112.007 103.056 112.007 102.76C112.007 102.464 112.007 102.188 112.007 101.934C112.007 100.495 111.542 99.4157 110.61 98.696C109.721 97.934 108.388 97.553 106.61 97.553H97.8467L95.9417 109.554ZM98.9262 90.314H107.689C109.425 90.314 110.716 89.8695 111.563 88.9805C112.409 88.0915 112.981 86.9697 113.277 85.615C113.362 85.107 113.425 84.6625 113.468 84.2815C113.552 83.9005 113.595 83.5407 113.595 83.202C113.595 81.8473 113.193 80.8948 112.388 80.3445C111.584 79.7518 110.399 79.4555 108.832 79.4555H100.704L98.9262 90.314ZM125.454 118L132.884 71.01H142.282L134.852 118H125.454ZM142.756 118L150.185 71.01H168.156C170.061 71.01 171.796 71.2217 173.363 71.645C174.929 72.0683 176.262 72.7457 177.363 73.677C178.506 74.566 179.374 75.7513 179.967 77.233C180.559 78.7147 180.856 80.535 180.856 82.694C180.856 83.2867 180.813 83.9217 180.729 84.599C180.686 85.2763 180.602 85.996 180.475 86.758C180.178 89.0017 179.649 90.8643 178.887 92.346C178.167 93.8277 177.342 95.013 176.411 95.902C175.479 96.791 174.548 97.4683 173.617 97.934C172.685 98.3997 171.881 98.7807 171.204 99.077L176.919 118H167.33L162.568 100.537C162.06 100.537 161.467 100.537 160.79 100.537C160.155 100.537 159.477 100.537 158.758 100.537C158.08 100.537 157.403 100.537 156.726 100.537C156.091 100.495 155.498 100.474 154.948 100.474L152.154 118H142.756ZM156.091 93.0445H164.028C165.425 93.0445 166.589 92.8328 167.521 92.4095C168.452 91.9862 169.193 91.2877 169.743 90.314C170.336 89.298 170.759 87.901 171.013 86.123C171.098 85.742 171.14 85.3822 171.14 85.0435C171.182 84.6625 171.204 84.3238 171.204 84.0275C171.204 82.8845 170.992 81.9955 170.569 81.3605C170.188 80.6832 169.616 80.1963 168.854 79.9C168.134 79.6037 167.267 79.4555 166.251 79.4555H158.25L156.091 93.0445ZM200.973 118.381C198.56 118.381 196.359 118.191 194.369 117.809C192.38 117.386 190.665 116.645 189.226 115.587C187.786 114.486 186.686 112.983 185.924 111.078C185.162 109.131 184.781 106.612 184.781 103.522C184.781 102.04 184.865 100.41 185.035 98.6325C185.204 96.8545 185.437 95.0553 185.733 93.235C186.453 88.8323 187.405 85.1705 188.591 82.2495C189.776 79.3285 191.279 77.0213 193.099 75.328C194.92 73.6347 197.1 72.4282 199.64 71.7085C202.222 70.9888 205.228 70.629 208.657 70.629C210.985 70.629 213.123 70.8407 215.07 71.264C217.06 71.6873 218.774 72.4705 220.214 73.6135C221.695 74.7142 222.838 76.2805 223.643 78.3125C224.447 80.3445 224.849 82.9692 224.849 86.1865C224.849 87.5412 224.765 89.1075 224.595 90.8855C224.426 92.6635 224.172 94.4838 223.833 96.3465C223.156 100.918 222.203 104.644 220.976 107.522C219.79 110.401 218.288 112.624 216.467 114.19C214.647 115.756 212.467 116.857 209.927 117.492C207.387 118.085 204.402 118.381 200.973 118.381ZM202.497 109.872C204.36 109.872 205.947 109.618 207.26 109.11C208.614 108.602 209.736 107.776 210.625 106.633C211.557 105.448 212.319 103.924 212.911 102.061C213.546 100.156 214.075 97.8282 214.499 95.0765C214.753 93.3408 214.964 91.711 215.134 90.187C215.303 88.6207 215.388 87.3295 215.388 86.3135C215.388 84.2815 215.091 82.7575 214.499 81.7415C213.906 80.7255 213.017 80.027 211.832 79.646C210.646 79.265 209.122 79.0745 207.26 79.0745C205.482 79.0745 203.915 79.3073 202.561 79.773C201.248 80.2387 200.127 81.043 199.195 82.186C198.264 83.2867 197.46 84.8318 196.782 86.8215C196.147 88.8112 195.597 91.3723 195.131 94.505C194.835 96.1983 194.602 97.807 194.433 99.331C194.263 100.813 194.179 102.04 194.179 103.014C194.179 104.834 194.454 106.252 195.004 107.268C195.597 108.242 196.507 108.919 197.735 109.3C198.962 109.681 200.55 109.872 202.497 109.872ZM227.279 118L234.645 71.01H252.87C256.002 71.01 258.436 71.4333 260.172 72.28C261.95 73.0843 263.178 74.2062 263.855 75.6455C264.575 77.0848 264.935 78.757 264.935 80.662C264.935 81.2123 264.913 81.7627 264.871 82.313C264.829 82.821 264.765 83.3713 264.681 83.964C264.342 86.3347 263.411 88.3878 261.887 90.1235C260.363 91.8592 258.415 93.0022 256.045 93.5525C257.442 93.8912 258.648 94.4415 259.664 95.2035C260.722 95.9655 261.527 96.9815 262.077 98.2515C262.67 99.4792 262.966 101.024 262.966 102.887C262.966 103.31 262.945 103.818 262.903 104.411C262.86 105.004 262.754 105.808 262.585 106.824C261.865 110.846 260.087 113.724 257.251 115.46C254.457 117.153 250.605 118 245.694 118H227.279ZM238.011 109.554H246.901C248.425 109.554 249.652 109.343 250.584 108.919C251.557 108.496 252.298 107.861 252.806 107.014C253.356 106.125 253.737 105.025 253.949 103.712C254.034 103.374 254.076 103.056 254.076 102.76C254.076 102.464 254.076 102.188 254.076 101.934C254.076 100.495 253.61 99.4157 252.679 98.696C251.79 97.934 250.457 97.553 248.679 97.553H239.916L238.011 109.554ZM240.995 90.314H249.758C251.494 90.314 252.785 89.8695 253.632 88.9805C254.478 88.0915 255.05 86.9697 255.346 85.615C255.431 85.107 255.494 84.6625 255.537 84.2815C255.621 83.9005 255.664 83.5407 255.664 83.202C255.664 81.8473 255.261 80.8948 254.457 80.3445C253.653 79.7518 252.467 79.4555 250.901 79.4555H242.773L240.995 90.314ZM265.047 118L287.399 71.01H299.21L306.449 118H296.67L295.336 108.157H279.271L274.699 118H265.047ZM282.827 99.712H294.384L291.971 79.138L282.827 99.712Z" fill="#185FE8"/>
</g>
<defs>
<filter id="filter0_i_1_2" x="0.977966" y="0.628998" width="305.471" height="121.752" filterUnits="userSpaceOnUse" color-interpolation-filters="sRGB">
<feFlood flood-opacity="0" result="BackgroundImageFix"/>
<feBlend mode="normal" in="SourceGraphic" in2="BackgroundImageFix" result="shape"/>
<feColorMatrix in="SourceAlpha" type="matrix" values="0 0 0 0 0 0 0 0 0 0 0 0 0 0 0 0 0 0 127 0" result="hardAlpha"/>
<feOffset dy="4"/>
<feGaussianBlur stdDeviation="2"/>
<feComposite in2="hardAlpha" operator="arithmetic" k2="-1" k3="1"/>
<feColorMatrix type="matrix" values="0 0 0 0 0 0 0 0 0 0 0 0 0 0 0 0 0 0 0.25 0"/>
<feBlend mode="normal" in2="shape" result="effect1_innerShadow_1_2"/>
</filter>
</defs>
</svg>
